<?xml version="1.0" encoding="utf-8"?>
<?xml-stylesheet type="text/xsl" href="rss1.xsl"?>
<rss version="2.0" xmlns:atom="http://www.w3.org/2005/Atom" xmlns:content="http://purl.org/rss/1.0/modules/content/" xmlns:dc="http://purl.org/dc/elements/1.1/" xmlns:media="http://search.yahoo.com/mrss/">
<channel>
 <title>Getty</title>
 <link>http://www.gettyimg.com/</link>
 <atom:link href="http://www.gettyimg.com/" rel="self" type="application/rss+xml" />

 
                <item>
                <title><![CDATA[【Albums (lossless)】Delete]]></title>
                <link><![CDATA[https://sharemania.us/threads/delete.245107/]]></link>
                <description><![CDATA[<article>
<blockquote class="messageText SelectQuoteContainer ugc baseHtml">
Delete
<div class="messageTextEndMarker">&nbsp;</div>
</blockquote>
</article>]]></description>
                <author><![CDATA[Kweennayy]]></author>
                </item>

                
                <item>
                <title><![CDATA[【Albums (lossless)】Delete]]></title>
                <link><![CDATA[https://sharemania.us/threads/delete.245109/]]></link>
                <description><![CDATA[<article>
<blockquote class="messageText SelectQuoteContainer ugc baseHtml">
Delete
<div class="messageTextEndMarker">&nbsp;</div>
</blockquote>
</article>]]></description>
                <author><![CDATA[Kweennayy]]></author>
                </item>

                
                <item>
                <title><![CDATA[【PRORES HD】Tiësto - All Nighter (ProRes 4K)]]></title>
                <link><![CDATA[https://sharemania.us/threads/ti%C3%ABsto-all-nighter-prores-4k.245110/]]></link>
                <description><![CDATA[<article>
<blockquote class="messageText SelectQuoteContainer ugc baseHtml">
<div style="text-align: center"><img src="https://i.ibb.co/V33ybmq/Ti-sto-All-Nighter-VTM.gif" class="bbCodeImage LbImage" alt="[​IMG]" data-url="https://i.ibb.co/V33ybmq/Ti-sto-All-Nighter-VTM.gif" style=""><br>
​</div>
<div class="ToggleTriggerAnchor bbCodeSpoilerContainer">
<button type="button" class="button bbCodeSpoilerButton ToggleTrigger Tooltip JsOnly" data-target="> .SpoilerTarget"><span>Spoiler: <span class="SpoilerTitle">ProRes</span></span></button>
<div class="SpoilerTarget bbCodeSpoilerText">
<div class="bbCodeBlock bbCodeCode">
<div class="type">Code:</div>
<pre>General
Complete name                            : Tiësto - All Nighter.mov
Format                                   : MPEG-4
Format profile                           : QuickTime
Codec ID                                 : qt   2005.03 (qt  )
File size                                : 12.7 GiB
Duration                                 : 2 min 46 s
Overall bit rate mode                    : Variable
Overall bit rate                         : 657 Mb/s
Frame rate                               : 23.976 FPS
Encoded date                             : 2023-04-19 21:15:39 UTC
Tagged date                              : 2023-04-19 21:17:31 UTC
Writing library                          : Apple QuickTime
TIM                                      : 00:00:00:00
TSC                                      : 24000
TSZ                                      : 1001

Video
ID                                       : 1
Format                                   : ProRes
Format version                           : Version 0
Format profile                           : 422 HQ
Codec ID                                 : apch
Duration                                 : 2 min 46 s
Bit rate mode                            : Variable
Bit rate                                 : 655 Mb/s
Width                                    : 3 840 pixels
Height                                   : 2 160 pixels
Display aspect ratio                     : 16:9
Frame rate mode                          : Constant
Frame rate                               : 23.976 (24000/1001) FPS
Color space                              : YUV
Chroma subsampling                       : 4:2:2
Scan type                                : Progressive
Bits/(Pixel*Frame)                       : 3.295
Stream size                              : 12.7 GiB (100%)
Writing library                          : Apple
Language                                 : English
Encoded date                             : 2023-04-19 21:15:39 UTC
Tagged date                              : 2023-04-19 21:15:39 UTC
Color primaries                          : BT.709
Transfer characteristics                 : BT.709
Matrix coefficients                      : BT.709

Audio
ID                                       : 2
Format                                   : PCM
Format settings                          : Little / Signed
Codec ID                                 : sowt
Duration                                 : 2 min 46 s
Bit rate mode                            : Constant
Bit rate                                 : 1 536 kb/s
Channel(s)                               : 2 channels
Channel layout                           : L R
Sampling rate                            : 48.0 kHz
Bit depth                                : 16 bits
Stream size                              : 30.4 MiB (0%)
Language                                 : English
Encoded date                             : 2023-04-19 21:15:39 UTC
Tagged date                              : 2023-04-19 21:15:39 UTC

Other
ID                                       : 3
Type                                     : Time code
Format                                   : QuickTime TC
Duration                                 : 2 min 46 s
Frame rate                               : 23.976 (24000/1001) FPS
Time code of first frame                 : 00:00:00:00
Time code of last frame                  : 00:02:46:02
Time code, stripped                      : Yes
Language                                 : English
Encoded date                             : 2023-04-19 21:15:39 UTC
Tagged date                              : 2023-04-19 21:15:39 UTC

</pre>
</div><div style="text-align: center">​</div></div>
</div><div style="text-align: center"><br>
<div class="bbCodeBlock bbCodeVfcHH HiddenContent">
<div class="attribution type">Hidden Content:</div>
<blockquote>You must reply before you can see the hidden data contained here.</blockquote>
</div></div>
<div class="messageTextEndMarker">&nbsp;</div>
</blockquote>
</article>]]></description>
                <author><![CDATA[fstambuk]]></author>
                </item>

                </channel></rss>